<svg t="1728220777006" class="icon" viewBox="0 0 1024 1024" version="1.1" xmlns="http://www.w3.org/2000/svg" p-id="5075" width="200" height="200"><path d="M997.376 656.384c13.824-45.568 20.992-94.208 20.992-144.384 0-279.04-226.816-505.856-505.856-505.856S6.656 232.96 6.656 512c0 247.296 178.176 453.12 412.672 497.152 0.512 0 1.024 0 1.536 0.512 29.696 5.632 60.416 8.192 92.16 8.192 228.352 0 421.376-152.064 484.352-359.936v-1.536z m-100.864 26.624c-14.848 3.072-25.6 2.048-30.208 0.512 1.024-5.12 0-9.728-2.56-14.336-14.336-23.04-35.84-54.784-58.88-76.8-20.992-19.968-31.232-39.936-30.208-60.928 1.536-32.768 28.672-69.632 80.384-109.568 7.168-5.632 9.728-14.848 6.656-23.552-9.216-24.576 1.536-44.544 12.8-48.64 11.776-4.608 20.48 14.848 23.04 20.48 3.072 7.168 9.216 11.776 16.896 12.8 2.048 0 3.072 0 19.968-0.512 6.656-0.512 16.896-1.024 25.088-1.024 12.288 41.472 18.432 84.992 18.432 130.048 0 45.568-6.656 89.6-18.944 131.072-14.336 23.552-40.96 36.352-62.464 40.448zM47.616 512c0-27.136 2.56-54.272 7.168-80.384 11.776 4.096 25.6 6.144 40.448 7.168 26.624 1.536 52.736-3.584 74.24-13.824 10.752 8.192 12.8 13.824 12.8 22.528 0 70.144 0 176.128 89.088 180.224 6.144 2.56 28.672 14.848 40.96 46.592 10.24 26.624 37.888 19.968 52.224 16.896 2.048-0.512 4.096-1.024 6.656-1.536-1.536 11.264-4.096 27.136-4.096 47.616 0 49.152 73.728 109.568 102.912 131.584 0.512 8.704 1.024 17.92 2.048 28.16-33.792 24.064-48.128 49.152-58.368 68.096-0.512 0.512-0.512 1.024-1.024 1.536-208.384-46.08-365.056-232.448-365.056-454.656zM455.68 973.824c9.728-15.872 22.528-32.768 49.152-49.664 6.656-4.096 10.752-12.288 9.728-19.968-2.56-17.92-3.584-32.768-3.072-46.08 0-6.656-3.072-12.8-8.704-16.896-64.512-46.08-94.208-89.6-94.208-104.448 0-18.944 2.048-33.792 4.096-44.544 2.56-15.36 4.096-27.136-4.608-37.376-4.608-5.632-11.776-8.704-19.968-8.704-12.288 0-23.552 2.56-32.256 4.608l-7.68 1.536c-21.504-48.64-62.976-65.536-72.192-66.048-44.032-1.024-52.224-47.616-52.224-139.776 0-34.304-20.48-51.2-42.496-64-6.656-4.096-14.848-3.584-21.504 0-30.72 19.456-74.752 15.872-96.256 7.68 52.736-196.608 233.984-343.04 449.024-343.04 8.192 0 16.384 0 25.088 0.512 33.28 10.752 43.52 52.736 37.888 78.848-3.072 13.312-8.704 19.456-16.896 18.432-5.632-1.024-11.264 0.512-15.872 4.096s-7.168 8.704-7.68 14.848c-1.536 20.992-3.584 51.712-6.144 77.824-1.024 12.288-6.656 15.36-28.672 21.504-14.848 4.096-31.744 9.216-41.472 24.576-10.752 16.384-6.144 38.912 11.264 55.808 22.016 20.48 60.416 29.696 91.648 6.656 12.8-9.216 17.408-20.48 20.992-28.16 3.072-7.168 3.072-7.68 8.192-9.216 14.336-4.608 25.088-4.608 30.72-0.512 6.144 4.608 8.704 16.384 8.704 25.6 0 7.168-3.072 10.24-22.528 20.48-20.48 10.752-48.128 25.6-67.584 60.928-11.264 20.48-1.024 36.864 4.096 45.568 2.048 3.584 4.096 6.144 4.608 9.216 2.56 8.704 7.68 29.184-4.608 35.328-8.192 4.096-20.48 1.024-25.088-4.608-9.728-12.288-10.752-28.16-11.264-37.888-0.512-8.192-1.536-19.456-12.8-25.088-5.632-3.072-12.288-3.072-17.92 0-5.12 0-17.408-3.072-24.576-5.12-14.336-3.584-27.648-6.656-38.4-6.144-23.552 2.048-29.184 24.064-31.744 34.816 0 0.512-0.512 1.536-0.512 2.56-8.192-0.512-11.776-1.536-13.312-2.048-11.264-3.072-18.432 1.536-22.016 5.12-2.56 2.56-8.192 10.24-4.608 21.504v1.024c0.512 3.584 0.512 8.192 1.536 13.824 2.048 18.944 5.12 51.2 5.12 91.648 0 8.704 3.584 16.384 10.24 21.504 12.288 9.216 27.648 5.12 43.52 0.512 9.216-2.56 18.944-5.632 26.112-5.12 12.288 0.512 22.528 8.192 33.28 16.384 6.656 5.12 13.824 10.24 21.504 13.824 12.8 6.144 26.624 18.944 39.936 31.232 17.92 16.896 33.28 31.232 51.2 34.816 0.512 1.024 0.512 2.048 0.512 3.072 5.632 24.576 19.456 34.816 40.96 31.744 8.192-1.024 17.408 3.072 20.992 10.24 5.632 11.264-4.096 24.064-10.752 30.72-4.096 4.608-8.192 6.144-13.824 8.192-18.432 7.168-34.816 16.384-44.544 58.368-1.536 6.144-1.536 25.088 1.536 32.768 5.12 13.824 17.92 57.344 25.088 83.456-26.624 4.608-54.272 7.168-82.432 7.168-18.944-0.512-37.376-2.048-56.32-4.096z m179.2-12.8c-7.68-25.6-20.48-70.656-26.112-87.04-0.512-2.56-0.512-9.216-0.512-11.776 5.632-23.04 9.728-24.576 18.944-28.16 7.68-3.072 18.432-7.168 29.184-17.92 23.552-24.576 30.208-53.248 17.408-77.824-10.752-20.992-34.304-33.792-58.368-32.256-7.168-31.744-26.112-33.28-33.28-34.304-5.632-1.024-20.992-15.36-30.72-24.064-14.848-13.824-31.744-29.696-50.176-38.4-4.096-2.048-9.216-5.632-14.848-9.728-14.336-10.24-31.744-23.552-56.32-24.576-13.312-0.512-26.624 3.584-38.912 6.656-0.512 0-1.024 0.512-2.048 0.512-0.512-30.72-3.072-55.808-4.608-72.704h2.048c25.6 0.512 31.744-24.576 34.304-33.792 0-1.024 0.512-2.048 1.024-3.072 5.632 1.024 13.824 3.072 19.456 4.608 9.216 2.048 17.92 4.608 25.6 5.632 1.536 13.312 6.144 31.232 18.944 47.616 16.896 22.016 51.2 28.672 76.288 15.872 10.24-5.12 41.984-26.624 24.576-83.456-2.56-7.68-6.144-13.824-9.216-18.944-1.024-1.536-2.048-3.584-3.072-4.608 13.824-24.576 32.256-34.304 50.176-44.032 19.968-10.24 44.544-23.552 44.544-56.832 0-11.776-2.56-41.984-25.088-58.88-16.896-12.288-39.424-14.336-67.072-5.632-22.528 7.168-29.184 22.016-33.28 31.744-2.56 5.632-3.584 8.704-7.68 11.264-10.752 8.192-21.504 6.144-28.672 3.072-8.192-3.072-12.8-8.704-14.336-11.264 3.584-2.048 11.776-4.608 17.408-6.144 19.968-5.632 53.76-15.36 57.856-56.832 2.048-19.968 4.096-42.496 5.12-61.44 19.968-5.12 35.328-23.04 40.96-48.64 5.632-25.6 1.536-54.784-11.264-79.36 156.16 31.232 284.16 140.8 341.504 285.184-3.584 0-8.192 0.512-12.8 0.512h-3.584c-18.432-32.256-47.104-38.912-69.632-30.208-27.648 10.752-49.152 45.568-40.448 86.528-54.784 44.544-83.456 88.576-85.504 131.072-1.536 33.28 12.8 65.024 43.008 92.672 17.92 16.896 35.328 41.472 48.128 61.44-1.024 15.36 7.168 29.184 23.552 36.352 8.192 3.584 18.944 5.632 31.232 5.632 15.872 0 34.304-3.584 51.712-10.24-57.856 119.296-165.376 209.92-295.424 245.76z" p-id="5076"></path></svg>