<svg t="1728458337850" class="icon" viewBox="0 0 1024 1024" version="1.1" xmlns="http://www.w3.org/2000/svg" p-id="16389"><path d="M810.596291 321.474684A301.360124 301.360124 0 0 0 511.897636 17.453091a301.462488 301.462488 0 0 0-298.647474 304.021593c0 158.101464 181.696406 377.774979 261.642825 466.780627a49.748988 49.748988 0 0 0 74.009297 0c79.997601-89.05683 261.694007-308.679162 261.694007-466.780627z m-540.482831 0a241.784176 241.784176 0 1 1 483.568351 0c0 109.273754-113.368321 270.34378-203.499975 378.235617a49.851352 49.851352 0 0 1-76.568401 0c-90.182836-107.840656-203.397611-268.859499-203.397611-378.235617h-0.102364z" p-id="16390"></path><path d="M511.897636 822.240216c-19.090918 0-37.260559-8.137952-50.004898-22.31539-79.997601-89.05683-266.146849-314.002099-266.146849-478.450142A319.325036 319.325036 0 0 1 511.897636 0a319.222672 319.222672 0 0 1 316.202929 321.474684c0 164.448043-186.149248 389.393312-266.146849 478.450142-12.795522 14.177438-30.965162 22.31539-50.05608 22.31539z m0-787.231669A284.265307 284.265307 0 0 0 230.703254 321.423502c0 152.369071 179.905033 369.022842 257.189983 455.111111a32.244714 32.244714 0 0 0 48.008797 0c77.28495-86.139451 257.189984-302.844404 257.189984-455.111111A284.214125 284.214125 0 0 0 511.897636 35.008547z m0 700.119758c-19.961014 0-38.898386-8.854501-51.693907-24.209127-77.540861-92.639576-207.594542-266.556305-207.594542-389.444494a261.745189 261.745189 0 0 1 259.288449-263.587744 261.745189 261.745189 0 0 1 259.237267 263.587744c0 122.632279-130.002499 296.651372-207.54336 389.444494-12.795522 15.354626-31.732893 24.209127-51.693907 24.209127z m0-642.232818a226.736642 226.736642 0 0 0-224.279902 228.579197c0 116.02979 139.471185 295.320638 199.405408 366.975558a32.347079 32.347079 0 0 0 49.697806 0c59.985405-71.757285 199.45659-251.252861 199.45659-366.975558a226.736642 226.736642 0 0 0-224.279902-228.579197z" p-id="16391"></path><path d="M511.897636 398.91318a82.812616 82.812616 0 1 1 82.812615-82.710251 83.631529 83.631529 0 0 1-82.812615 82.710251zM898.987754 689.780977a37.567651 37.567651 0 0 1 29.890339 9.57105c31.579347 24.669766 50.721447 61.930324 52.359274 101.954716 0 122.683461-201.810966 214.760034-469.339731 214.760034-267.477583 0-469.339731-91.974209-469.339731-214.760034 0-67.355626 59.575948-126.470935 167.518968-166.597691a29.020243 29.020243 0 0 1 37.465287 18.681461 31.067526 31.067526 0 0 1-17.811366 39.205478c-79.22987 29.4297-128.467037 70.989554-128.467036 108.761934 0 72.525016 168.593792 153.392713 410.633878 153.392712 242.040086 0 410.633878-80.867696 410.633878-153.392712a80.355875 80.355875 0 0 0-33.831359-56.965662 37.465287 37.465287 0 0 1-10.748238-14.279802 31.732893 31.732893 0 0 1 2.71265-28.969061 24.055581 24.055581 0 0 1 18.323187-11.362423z" p-id="16392"></path><path d="M511.897636 1023.641725c-130.51432 0-250.536312-22.008297-338.05768-62.032688-89.466287-40.945669-138.703454-97.757785-138.703454-160.302294 0-70.631279 61.162593-132.305693 172.330085-173.609637a36.54401 36.54401 0 0 1 47.241065 23.441396 38.386565 38.386565 0 0 1-22.213025 48.418253c-75.186485 27.945419-123.707103 67.918628-123.707103 101.80117 0 32.858899 41.048033 69.095816 109.836758 96.938871 93.919128 34.291998 193.31474 50.874994 293.273354 48.930075a808.932873 808.932873 0 0 0 293.273354-48.930075c68.737542-27.843055 109.887939-64.079972 109.887939-96.938871a73.59984 73.59984 0 0 0-31.221072-51.182087 44.528415 44.528415 0 0 1-12.795522-17.248363 39.205478 39.205478 0 0 1 3.17329-35.520367 31.425801 31.425801 0 0 1 23.79967-15.098716 44.88669 44.88669 0 0 1 35.82746 11.362423 142.798021 142.798021 0 0 1 54.867197 107.635928c0 62.390963-49.237167 119.305443-138.703454 160.19993C762.48513 1001.633428 642.411956 1023.641725 511.897636 1023.641725z m-292.044984-383.046733a21.650022 21.650022 0 0 0-7.267857 1.279552C107.815065 680.721747 50.081671 737.431499 50.081671 801.306743c0 118.179437 198.586495 207.287449 461.815965 207.287449 263.280652 0 461.815964-89.05683 461.815964-207.287449a128.467037 128.467037 0 0 0-49.80017-96.478233 29.94152 29.94152 0 0 0-23.850852-7.677313 16.531814 16.531814 0 0 0-12.949068 7.779677 24.465037 24.465037 0 0 0-2.149647 22.366572 29.890338 29.890338 0 0 0 8.59859 11.362423c20.677563 14.638077 33.984905 37.516469 36.492828 62.698056 0 77.694407-168.030789 160.865297-418.157645 160.865297-250.126856 0-418.157645-83.17089-418.157645-160.865297 0-41.45749 49.902534-84.808717 133.380517-115.825062a23.441396 23.441396 0 0 0 13.358524-29.68561 21.803569 21.803569 0 0 0-11.05533-13.051432 21.547658 21.547658 0 0 0-9.57105-2.200829z" p-id="16393"></path></svg>
