<svg t="1728458157519" class="icon" viewBox="0 0 1024 1024" version="1.1" xmlns="http://www.w3.org/2000/svg" p-id="8165"><path d="M241.64352 435.2l-62.464-65.41312L471.71584 63.16032C550.27712-19.16928 676.6592-19.456 754.0736 61.6448c77.39392 81.12128 77.1072 213.6064-1.45408 295.95648l-314.5728 329.74848-62.464-65.45408 314.61376-329.728c42.8032-45.17888 42.57792-118.1696-0.512-163.04128-42.8032-45.1584-112.4352-45.40416-155.5456-0.53248L241.60256 435.2h0.04096z" p-id="8166"></path><path d="M796.09856 642.048l62.464 65.45408L609.28 968.74496c-71.12704 74.5472-190.21824 65.20832-266.6496-14.90944-76.47232-80.13824-85.4016-204.96384-14.2336-279.51104L673.1776 312.9344l62.42304 65.39264-344.80128 361.43104c-32.74752 34.32448-28.03712 100.29056 16.1792 146.61632 44.19584 46.34624 107.13088 51.28192 139.8784 16.93696L796.11904 642.048h-0.02048zM44.11392 576.8192c-57.28256-60.04736-57.07776-158.24896 1.26976-219.4432 58.368-61.19424 152.10496-61.39904 209.34656-1.31072 57.30304 60.0064 57.1392 158.24896-1.24928 219.4432-58.368 61.15328-152.10496 61.35808-209.36704 1.31072z m64.34816-67.44064c23.16288 24.2688 60.14976 24.1664 82.57536 0.65536 22.44608-23.49056 22.528-62.2592-0.6144-86.528-23.20384-24.28928-60.17024-24.20736-82.61632-0.69632-22.40512 23.49056-22.50752 62.27968 0.65536 86.528v0.04096z" p-id="8167"></path><path d="M1012.44928 451.44064l-46.2848 306.54464-83.82464-156.4672-153.06752-59.392z" p-id="8168"></path></svg>
